# xmcd
#
# Track frame offsets:
#	150
#	17320
#	27202
#	39237
#	54305
#	68852
#	84147
#	95154
#	100629
#	112397
#	116620
#	123837
#	128137
#	136685
#	155190
#	166267
#	171052
#	175865
#	176734
#	177612
#	178387
#	179045
#	179872
#	180815
#	181510
#	193852
#
# Disc length: 2784 seconds
#
# Revision: 0
# Processed by: cddbd v1.5.2PL0 Copyright (c) Steve Scherf et al.
# Submitted via: EasyCDDAExtractor 10.0.6.1
#
DISCID=620ade1a
DTITLE=Various Artist - Daywind Vol 10
DYEAR=1996
DGENRE=Gospel
TTITLE0=Freemans - I'm Going Over
TTITLE1=Garry Jones - When We All Get To Heaven
TTITLE2=Lewis Family - The Gloryland Way
TTITLE3=James Payne - Help Is On The Way
TTITLE4=Ann Downing - Only A Matter Of Mercy
TTITLE5=Downings - I Feel So Good About It
TTITLE6=Carriers - Let The Wind Blow
TTITLE7=Intro - Freemans
TTITLE8=Intro - freemans
TTITLE9=intro - Freemans
TTITLE10=intro - Freemans
TTITLE11=intro - Freemans
TTITLE12=intro - Freemans
TTITLE13=intro - Freemans
TTITLE14=intro - Freemans
TTITLE15=Liner - Chris Freeman
TTITLE16=Liner - Chris Freeman
TTITLE17=Liner - Chris Freeman
TTITLE18=Liner - Chris Freeman
TTITLE19=Liner - D. Freeman
TTITLE20=Liner - D. Freeman
TTITLE21=Liner - D. Freeman
TTITLE22=Liner - C> Freeman
TTITLE23=Liner - M. Freeman
TTITLE24=Traditions - When I Survey The Wonderous Cross
TTITLE25=Traditions  - Old Rugged Cross
EXTD=
EXTT0=
EXTT1=
EXTT2=
EXTT3=
EXTT4=
EXTT5=
EXTT6=
EXTT7=
EXTT8=
EXTT9=
EXTT10=
EXTT11=
EXTT12=
EXTT13=
EXTT14=
EXTT15=
EXTT16=
EXTT17=
EXTT18=
EXTT19=
EXTT20=
EXTT21=
EXTT22=
EXTT23=
EXTT24=
EXTT25=
PLAYORDER=
